<?xml version="1.0" encoding="UTF-8" standalone="no"?>
<svg
   id="Layer_1"
   width="665.66199"
   height="342.099"
   version="1.1"
   viewBox="0 0 665.66199 342.099"
   sodipodi:docname="rottoda-a-full-black.svg"
   inkscape:version="1.4 (86a8ad7, 2024-10-11)"
   xmlns:inkscape="http://www.inkscape.org/namespaces/inkscape"
   xmlns:sodipodi="http://sodipodi.sourceforge.net/DTD/sodipodi-0.dtd"
   xmlns="http://www.w3.org/2000/svg"
   xmlns:svg="http://www.w3.org/2000/svg">
  <defs
     id="defs18" />
  <sodipodi:namedview
     id="namedview18"
     pagecolor="#ffffff"
     bordercolor="#000000"
     borderopacity="0.25"
     inkscape:showpageshadow="2"
     inkscape:pageopacity="0.0"
     inkscape:pagecheckerboard="0"
     inkscape:deskcolor="#d1d1d1"
     inkscape:zoom="0.74814815"
     inkscape:cx="375.59406"
     inkscape:cy="171.08911"
     inkscape:window-width="1920"
     inkscape:window-height="1010"
     inkscape:window-x="-6"
     inkscape:window-y="-6"
     inkscape:window-maximized="1"
     inkscape:current-layer="Layer_1" />
  <!-- Generator: Adobe Illustrator 29.0.0, SVG Export Plug-In . SVG Version: 2.1.0 Build 186)  -->
  <g
     id="g17"
     transform="translate(-584.70502,-369.127)">
    <path
       d="M 808.622,462.266 785.96,423.884 h -32.225 v 38.382 h -4.847 v -91.698 h 35.893 c 14.672,0 26.592,11.921 26.592,26.592 0,12.576 -8.777,23.187 -20.436,26.068 l 23.056,39.037 h -5.371 z M 784.78,419.43 c 11.921,0 21.746,-10.087 21.746,-22.27 0,-12.183 -9.825,-22.138 -21.746,-22.138 h -31.046 v 44.408 z"
       id="path1" />
    <path
       d="m 821.383,416.417 c 0,-26.068 20.959,-47.29 47.29,-47.29 26.331,0 47.29,21.222 47.29,47.29 0,26.068 -20.959,47.29 -47.29,47.29 -26.331,0 -47.29,-21.221 -47.29,-47.29 z m 89.733,0 c 0,-23.58 -18.733,-42.705 -42.443,-42.705 -23.71,0 -42.443,19.125 -42.443,42.705 0,23.58 18.733,42.705 42.443,42.705 23.71,0 42.443,-19.125 42.443,-42.705 z"
       id="path2" />
    <path
       d="m 996.266,437.769 c 0,13.493 -11.004,24.497 -24.496,24.497 h -39.299 v -91.698 h 36.286 c 12.969,0 23.579,10.742 23.579,23.58 0,9.432 -5.502,17.161 -13.492,20.828 10.086,2.882 17.422,11.921 17.422,22.793 z m -58.948,-62.747 v 38.251 h 31.439 c 10.349,0 18.732,-8.515 18.732,-19.125 0,-10.48 -8.515,-19.125 -18.732,-19.125 h -31.439 z m 54.101,62.747 c 0,-11.003 -8.907,-20.042 -19.649,-20.042 h -34.452 v 40.085 h 34.452 c 10.873,0 19.649,-8.908 19.649,-20.042 v 0 z"
       id="path3" />
    <path
       d="m 1006.683,416.417 c 0,-26.068 20.959,-47.29 47.289,-47.29 26.33,0 47.29,21.222 47.29,47.29 0,26.068 -20.96,47.29 -47.29,47.29 -26.33,0 -47.289,-21.221 -47.289,-47.29 z m 89.732,0 c 0,-23.58 -18.732,-42.705 -42.443,-42.705 -23.711,0 -42.442,19.125 -42.442,42.705 0,23.58 18.732,42.705 42.442,42.705 23.71,0 42.443,-19.125 42.443,-42.705 z"
       id="path4" />
    <path
       d="m 1163.788,375.022 h -29.474 v 87.244 h -4.717 v -87.244 h -29.474 v -4.454 h 63.664 v 4.454 z"
       id="path5" />
    <path
       d="m 803.906,498.022 h -29.474 v 87.244 h -4.716 v -87.244 h -29.474 v -4.454 h 63.664 z"
       id="path6" />
    <path
       d="m 802.624,539.417 c 0,-26.068 20.959,-47.29 47.29,-47.29 26.331,0 47.29,21.222 47.29,47.29 0,26.068 -20.959,47.29 -47.29,47.29 -26.331,0 -47.29,-21.222 -47.29,-47.29 z m 89.732,0 c 0,-23.58 -18.733,-42.705 -42.443,-42.705 -23.71,0 -42.443,19.125 -42.443,42.705 0,23.58 18.733,42.705 42.443,42.705 23.71,0 42.443,-19.126 42.443,-42.705 z"
       id="path7" />
    <path
       d="m 912.808,555.268 v -61.7 h 4.847 v 61.7 c 0,15.064 9.562,26.854 28.426,26.854 18.732,0 28.295,-11.79 28.295,-26.854 v -61.7 h 4.847 v 61.7 c 0,18.471 -12.838,31.439 -33.142,31.439 -20.304,0 -33.273,-12.969 -33.273,-31.439 z"
       id="path8" />
    <path
       d="m 994.761,539.417 c 0,-26.068 19.912,-47.29 47.552,-47.29 16.506,0 31.309,8.646 38.906,21.614 l -4.192,2.489 c -6.681,-11.79 -19.911,-19.519 -34.714,-19.519 -25.021,0 -42.705,19.125 -42.705,42.705 0,23.58 17.685,42.705 42.705,42.705 15.195,0 28.558,-7.991 34.977,-20.043 l 4.322,2.358 c -7.467,13.361 -22.4,22.27 -39.299,22.27 -27.64,0 -47.552,-21.222 -47.552,-47.29 v 0 z"
       id="path9" />
    <path
       d="m 1162.569,493.568 v 91.698 h -4.847 V 540.334 H 1101 v 44.932 h -4.847 V 493.568 H 1101 v 42.312 h 56.722 v -42.312 z"
       id="path10" />
    <path
       d="m 825.782,662.417 c 0,25.282 -17.946,45.849 -43.229,45.849 h -33.666 v -91.697 h 33.666 c 25.283,0 43.229,20.566 43.229,45.849 v 0 z m -4.716,0 c 0,-22.794 -15.72,-41.396 -38.513,-41.396 h -28.819 v 82.79 h 28.819 c 22.793,0 38.513,-18.602 38.513,-41.395 v 0 z"
       id="path11" />
    <path
       d="m 890.995,684.031 h -48.076 l -9.432,24.234 h -5.109 l 35.893,-91.697 h 5.24 l 36.024,91.697 h -5.109 l -9.432,-24.234 z m -1.703,-4.454 -22.4,-57.376 -22.27,57.376 z"
       id="path12" />
    <path
       d="M 960.634,621.021 H 931.16 v 87.244 h -4.716 V 621.021 H 896.97 v -4.453 h 63.664 z"
       id="path13" />
    <path
       d="m 1014.619,684.031 h -48.075 l -9.432,24.234 h -5.109 l 35.893,-91.697 h 5.239 l 36.024,91.697 h -5.109 l -9.432,-24.234 v 0 z m -1.703,-4.454 -22.4,-57.376 -22.27,57.376 z"
       id="path14" />
    <path
       d="m 1090.153,703.812 v 4.454 h -49.386 v -91.697 h 4.847 v 87.243 z"
       fill="#641fff"
       id="path15" />
    <path
       d="m 1160.422,684.031 h -48.076 l -9.432,24.234 h -5.108 l 35.893,-91.697 h 5.24 l 36.024,91.697 h -5.109 z m -1.703,-4.454 -22.4,-57.376 -22.27,57.376 z"
       fill="#641fff"
       id="path16" />
    <path
       d="m 1250.367,683.77 c 0,13.492 -11.004,24.496 -24.497,24.496 h -39.299 v -91.697 h 36.286 c 12.969,0 23.579,10.741 23.579,23.579 0,9.432 -5.502,17.16 -13.492,20.828 10.087,2.882 17.423,11.921 17.423,22.794 z m -58.949,-62.749 v 38.251 h 31.439 c 10.349,0 18.732,-8.515 18.732,-19.125 0,-10.479 -8.515,-19.126 -18.732,-19.126 z m 54.102,62.749 c 0,-11.004 -8.907,-20.043 -19.649,-20.043 h -34.452 v 40.085 h 34.452 c 10.873,0 19.649,-8.907 19.649,-20.042 z"
       fill="#641fff"
       id="path17" />
  </g>
  <g
     id="Path_35"
     transform="translate(-584.70502,-369.127)">
    <path
       d="m 647.982,711.226 -3.559,-1.828 c 28.054,-54.63 42.279,-111.519 42.279,-169.085 0,-57.566 -14.225,-114.455 -42.279,-169.086 l 3.559,-1.827 c 28.347,55.202 42.721,112.705 42.721,170.913 0,58.208 -14.374,115.711 -42.721,170.913 z"
       fill="#641fff"
       id="path18" />
  </g>
  <g
     id="Path_34"
     transform="translate(-584.70502,-369.127)">
    <polygon
       points="644.176,540.311 615.898,370.64 619.844,369.983 648.232,540.311 648.177,540.64 619.844,710.64 615.898,709.981 "
       id="polygon18" />
  </g>
  <g
     id="Path_36"
     transform="translate(-584.70502,-369.127)">
    <rect
       x="584.70502"
       y="370.31201"
       width="4"
       height="339.99899"
       id="rect18" />
  </g>
</svg>
